<svg xmlns="http://www.w3.org/2000/svg" viewBox="0 0 50 35"><defs><style>.cls-1{fill:#fefefe;}.cls-2{fill:#fdfefe;}</style></defs><g id="Camada_2" data-name="Camada 2"><g id="Camada_1-2" data-name="Camada 1"><path class="cls-1" d="M48.5.2,44.3,4,38.2,9.3,28,18.2l-1.7,1.5a1.9,1.9,0,0,1-2.8,0L11.9,9.5,4,2.6,1.6.5C1.4.3,1.4.2,1.7.1H47.6A1.5,1.5,0,0,1,48.5.2Z"/><path class="cls-1" d="M48.2,34.8c-.5.2-43.9.3-45.9.1a1.1,1.1,0,0,1-.7-.2l2.5-2.1,8.5-7.1,7.1-6.1c.3-.2.4-.1.6.1l2.1,1.8a3.7,3.7,0,0,0,5,0l2.2-1.9h.5L42.4,29.8,48,34.6C48.1,34.6,48.1,34.7,48.2,34.8Z"/><path class="cls-2" d="M50,17.5V32.3a1.9,1.9,0,0,1-.1.8c-.1.3-.2.4-.4.2L45,29.5l-8.5-7.2-4.7-4c-.5-.4-.5-.4,0-.8l5.3-4.6,10.3-9,2.2-2c.2-.2.3-.2.3.1a1.7,1.7,0,0,1,.1.7Z"/><path class="cls-2" d="M0,17.4V2.8c0-.3-.1-.7.2-.8s.4.2.6.4l10.3,9,7.1,6.3c.3.2.2.3,0,.5-2.1,1.8-4.2,3.6-6.4,5.3l-8,6.8L.5,33.1c-.3.3-.3.2-.4-.1a2.2,2.2,0,0,1-.1-.8Z"/></g></g></svg>