<svg xmlns="http://www.w3.org/2000/svg" viewBox="0 0 48.1 48"><defs><style>.cls-1{fill:#fff;}</style></defs><g id="Camada_2" data-name="Camada 2"><g id="Camada_1-2" data-name="Camada 1"><path class="cls-1" d="M47.4,39.9c-2.3,2.3-4.6,4.7-7,6.9A4.6,4.6,0,0,1,36.5,48c-5.3-.3-9.9-2.6-14.2-5.3a54.1,54.1,0,0,1-8-6.3A61,61,0,0,1,4.6,24.6,30.6,30.6,0,0,1,.5,14.7C.3,13.6.2,12.5,0,11.4A5.9,5.9,0,0,1,1.9,7L8.1.9A2.2,2.2,0,0,1,10.5.1,2.4,2.4,0,0,1,12,1.4l5.4,10.4a2.8,2.8,0,0,1-.6,3.3l-2.2,2.3a1.1,1.1,0,0,0-.4,1.4,15,15,0,0,0,2,4,38.5,38.5,0,0,0,10.5,10A9.3,9.3,0,0,0,29.6,34a.9.9,0,0,0,1-.3c.9-.9,1.7-1.8,2.6-2.6a3.2,3.2,0,0,1,4.1-.6L46.6,36l.6.4A2.2,2.2,0,0,1,47.4,39.9Z"/></g></g></svg>